<?xml version="1.0" encoding="utf-8"?>
<!-- Generator: Adobe Illustrator 19.1.0, SVG Export Plug-In . SVG Version: 6.00 Build 0)  -->
<!DOCTYPE svg PUBLIC "-//W3C//DTD SVG 1.1//EN" "http://www.w3.org/Graphics/SVG/1.1/DTD/svg11.dtd" [
	<!ENTITY ns_extend "http://ns.adobe.com/Extensibility/1.0/">
	<!ENTITY ns_ai "http://ns.adobe.com/AdobeIllustrator/10.0/">
	<!ENTITY ns_graphs "http://ns.adobe.com/Graphs/1.0/">
	<!ENTITY ns_vars "http://ns.adobe.com/Variables/1.0/">
	<!ENTITY ns_imrep "http://ns.adobe.com/ImageReplacement/1.0/">
	<!ENTITY ns_sfw "http://ns.adobe.com/SaveForWeb/1.0/">
	<!ENTITY ns_custom "http://ns.adobe.com/GenericCustomNamespace/1.0/">
	<!ENTITY ns_adobe_xpath "http://ns.adobe.com/XPath/1.0/">
]>
<svg version="1.1" width="100px" height="47px" id="Layer_1" xmlns:i="&ns_ai;" xmlns:graph="&ns_graphs;"
	 xmlns="http://www.w3.org/2000/svg" xmlns:xlink="http://www.w3.org/1999/xlink" x="0px" y="0px" viewBox="0 0 1000 1000"
	 style="enable-background:new 0 0 1000 1000;" xml:space="preserve">
<style type="text/css">
	.st0{fill:#005596;}
	.st1{fill:#F2A713;}
</style>
<switch>

	<g i:extraneous="self">
		<g>
			<g>
				<path class="st0" d="M372.2,384L320,490.6c-11.4,23.3-22.5,45.4-31.1,69.4h-0.7c-1.4-24-3.1-45.8-5.5-69.4l-5.4-55.8l-4.9-50.7
					h-5.7H220v-0.7l-68.1,0.7H150v8h3.5c56.9,2,71.4,36.3,75.1,53.2l-6.8-53.2h0l7.1,54.6c-0.1-0.5-0.2-1.1-0.3-1.6l1.3,9.9
					c0,0,0-0.2,0-1.1l20,154.3h57.7l120.3-224H372.2z M220.7,383.3L220.7,383.3L220.7,383.3L220.7,383.3z"/>
				<path class="st0" d="M505.6,383.1l-44.3,224.1h-49.8l44.3-224.1H505.6z"/>
				<path class="st0" d="M509,555.3c13.8,8,33.5,14.3,55,14.3c19.4,0,37-8.6,37-26.3c0-12.6-10-20.9-31.5-31.6
					c-24.9-13-48.4-30.3-48.4-59.5c0-45.2,41.1-72.8,92-72.8c28.4,0,44.9,6,55,11.3l-22.2,39.9c-7.6-4-13.5-12-36.9-11.6
					c-23.2,0.3-35.3,13-35.3,25.3c0,13,14.2,20.9,33.9,31.6c28.4,14.3,46.3,32.6,46.3,59.2c0,49.9-42.9,75.5-94.7,75.5
					c-32.5,0-59-13-70.1-20.9L509,555.3z"/>
				<path class="st0" d="M725.9,549l-27.7,58.2h-52.9l113.4-224.1h64l27.3,224.1h-52.2L793,549H725.9z M790.9,512.5l-4.5-48.2
					c-1-12.3-2.4-30.3-3.5-43.9h-0.7c-5.9,13.6-12.4,30.9-18.7,43.9l-23.2,48.2H790.9z"/>
			</g>
			<rect x="70" y="236.3" class="st0" width="860" height="122.9"/>
			<rect x="70" y="642.6" class="st1" width="860" height="122.9"/>
		</g>
	</g>
</switch>
</svg>
