<svg width="33" height="33" viewBox="0 0 33 33" fill="none" xmlns="http://www.w3.org/2000/svg">
<path fill-rule="evenodd" clip-rule="evenodd" d="M22.2363 20.4317C22.2363 18.2994 23.9711 16.5645 26.1035 16.5645H30.4219V12.8907C30.4219 11.4691 29.2653 10.3125 27.8438 10.3125H3.86719C3.41537 10.3125 2.98154 10.2345 2.57812 10.0914V27.8438C2.57812 29.2653 3.73467 30.4219 5.15625 30.4219H27.8438C28.9556 30.4219 29.9387 29.714 30.2902 28.6604C30.5155 27.9851 31.2456 27.6203 31.9209 27.8456C32.5963 28.0708 32.9611 28.8009 32.7358 29.4763C32.0328 31.5839 30.0667 33 27.8438 33H5.15625C2.31309 33 0 30.6869 0 27.8438V6.5098V6.44535V6.12308C0 5.94204 0.0376406 5.76995 0.105059 5.61358C0.510404 3.91196 2.04329 2.64262 3.86719 2.64262H6.25195C6.9639 2.64262 7.54102 3.21973 7.54102 3.93168C7.54102 4.64363 6.9639 5.22074 6.25195 5.22074H3.86719C3.16716 5.22074 2.59566 5.78161 2.57851 6.47758C2.59566 7.17354 3.16716 7.73441 3.86719 7.73441H5.80781L18.2258 0.187476C18.5203 0.00855438 18.8743 -0.045135 19.2086 0.038654C19.5429 0.122443 19.8297 0.336556 20.0051 0.633298L21.4635 3.10146L24.6976 1.09594C24.9896 0.914828 25.3418 0.857788 25.6761 0.93758C26.0103 1.01724 26.2989 1.2271 26.4777 1.52049L30.8631 8.71474C32.1565 9.65247 33 11.1745 33 12.8907V23.0098C33 23.7217 32.4229 24.2988 31.7109 24.2988C31.6968 24.2988 31.6829 24.2979 31.669 24.297L31.6468 24.2956L31.6253 24.297C31.6109 24.2979 31.5966 24.2989 31.582 24.2989H26.1035C23.9711 24.2989 22.2363 22.5641 22.2363 20.4317ZM26.0997 21.7207H30.4181V19.1426H26.0997C25.3889 19.1426 24.8107 19.7208 24.8107 20.4316C24.8107 21.1425 25.3889 21.7208 26.0997 21.7207ZM10.775 7.73411L18.4526 3.06816L19.8253 5.39111C19.8517 5.4546 19.882 5.51718 19.9193 5.57751C19.9474 5.62269 19.9784 5.66478 20.0109 5.70525L21.2097 7.73411H10.775ZM22.7747 5.32142L24.2005 7.73428H27.2454L24.9517 3.97145L22.7747 5.32142Z" fill="#E9E9E9"/>
</svg>
