<svg width="2500" height="740" viewBox="0 0 2500 740" fill="none" xmlns="http://www.w3.org/2000/svg">
<path d="M2412.37 740H87.628C39.2125 740 0 700.842 0 652.495V87.5054C0 39.1577 39.2125 0 87.628 0H2412.37C2460.79 0 2500 39.1577 2500 87.5054V652.495C2500 700.842 2460.79 740 2412.37 740V740Z" fill="black"/>
<path d="M2483.59 652.494C2483.59 691.652 2451.98 723.218 2412.77 723.218H88.028C48.8154 723.218 16.8052 691.652 16.8052 652.494V87.5049C16.8052 48.3473 48.8154 16.3818 88.028 16.3818H2412.77C2451.98 16.3818 2483.99 47.9477 2483.99 87.5049L2483.59 652.494V652.494Z" fill="black"/>
<path d="M519.631 344.81C519.183 278.164 574.212 245.512 576.896 244.17C545.579 198.547 497.262 192.285 479.814 191.837C439.102 187.365 399.732 216.438 378.705 216.438C357.677 216.438 325.466 192.285 291.017 193.179C246.726 194.074 205.119 219.569 182.303 259.378C135.327 340.784 170.223 460.21 215.409 525.514C237.778 557.719 264.174 593.502 298.623 592.16C332.177 590.818 344.703 570.69 385.415 570.69C425.68 570.69 437.312 592.16 472.655 591.265C508.894 590.818 531.71 559.061 553.185 526.409C579.133 489.731 589.423 453.053 589.87 451.264C589.87 451.264 520.526 424.874 519.631 344.81V344.81ZM453.418 148.45C471.313 125.639 483.84 95.2232 480.261 63.9131C453.865 65.2549 421.206 82.2519 402.416 104.169C385.863 123.85 370.652 155.607 374.678 185.575C404.206 187.812 434.628 170.815 453.418 148.45V148.45Z" fill="white"/>
<path d="M2412.37 0H1167.17L1654.93 740H2412.37C2460.79 740 2500 700.842 2500 652.495V87.5054C2500 39.1577 2460.79 0 2412.37 0Z" fill="url(#paint0_linear)"/>
<path d="M994.319 582.97H952.305L929.098 510.648H849.072L827.065 582.97H786.252L865.477 336.836H914.693L994.319 582.97V582.97ZM922.295 480.281L901.489 415.951C899.088 409.557 895.087 393.974 889.085 369.601H888.285C885.884 379.989 881.883 395.573 876.681 415.951L856.274 480.281H922.295V480.281ZM1197.98 491.869C1197.98 522.236 1189.58 545.81 1173.18 563.391C1158.37 578.974 1140.37 586.966 1118.36 586.966C1094.75 586.966 1077.95 578.575 1067.54 561.793V654.892H1028.33V463.499C1028.33 444.719 1027.93 425.141 1026.73 405.162H1061.54L1063.94 433.132H1064.74C1077.95 411.955 1097.95 401.167 1124.76 401.167C1145.57 401.167 1163.17 409.557 1177.18 425.94C1191.18 443.121 1197.98 465.097 1197.98 491.869V491.869ZM1157.97 493.467C1157.97 476.285 1153.97 461.901 1146.37 450.713C1137.96 439.126 1126.36 433.132 1111.96 433.132C1102.35 433.132 1093.55 436.329 1085.55 442.722C1077.55 449.115 1072.34 457.506 1069.94 468.294C1068.74 472.29 1068.34 476.285 1067.94 480.281V509.849C1067.94 522.635 1071.94 533.823 1079.95 542.614C1087.95 551.404 1098.35 555.799 1110.76 555.799C1125.56 555.799 1137.16 550.205 1145.57 538.618C1153.97 527.43 1157.97 512.246 1157.97 493.467ZM1402.85 491.869C1402.85 522.236 1394.45 545.81 1378.04 563.391C1363.24 578.974 1345.23 586.966 1323.22 586.966C1299.62 586.966 1282.81 578.575 1272.41 561.793V654.892H1232.79V463.499C1232.79 444.719 1232.39 425.141 1231.19 405.162H1266.01L1268.41 433.132H1269.21C1282.41 411.955 1302.42 401.167 1329.23 401.167C1350.03 401.167 1367.64 409.557 1381.64 425.94C1395.65 443.121 1402.85 465.097 1402.85 491.869V491.869ZM1362.44 493.467C1362.44 476.285 1358.44 461.901 1350.83 450.713C1342.43 439.126 1330.83 433.132 1316.42 433.132C1306.82 433.132 1298.02 436.329 1290.01 442.722C1282.01 449.115 1276.81 457.506 1274.41 468.294C1273.21 473.089 1272.41 477.084 1272.41 480.281V509.849C1272.41 522.635 1276.41 533.823 1284.41 542.614C1292.41 551.404 1302.82 555.799 1315.22 555.799C1330.03 555.799 1341.63 550.205 1350.03 538.618C1358.44 527.43 1362.44 512.246 1362.44 493.467ZM1631.32 513.845C1631.32 534.622 1624.12 551.804 1609.32 564.989C1593.31 579.374 1570.9 586.566 1542.09 586.566C1515.69 586.566 1494.48 581.372 1478.07 571.383L1487.28 538.618C1504.48 549.007 1523.69 553.802 1544.49 553.802C1559.3 553.802 1570.9 550.605 1579.31 543.812C1587.71 537.02 1591.71 528.229 1591.71 517.041C1591.71 507.052 1588.11 498.661 1581.31 491.869C1574.5 485.076 1563.3 478.683 1547.3 472.689C1504.08 456.707 1482.47 433.132 1482.47 401.966C1482.47 381.588 1490.08 365.205 1505.28 352.419C1520.49 339.633 1540.89 333.24 1565.7 333.24C1588.11 333.24 1606.91 337.236 1621.72 344.827L1611.72 376.793C1597.71 369.201 1582.11 365.605 1564.5 365.605C1550.5 365.605 1539.69 369.201 1531.69 375.994C1525.29 381.987 1521.69 389.579 1521.69 398.37C1521.69 407.959 1525.29 416.35 1532.89 422.344C1539.29 428.337 1551.3 434.331 1568.9 441.523C1590.11 449.914 1605.71 459.903 1615.72 471.491C1626.52 482.678 1631.32 496.663 1631.32 513.845V513.845ZM1762.16 435.13H1718.55V521.437C1718.55 543.413 1726.15 554.201 1741.76 554.201C1748.96 554.201 1754.56 553.802 1759.36 552.203L1760.56 582.171C1752.96 584.968 1742.56 586.566 1729.75 586.566C1714.15 586.566 1702.15 581.771 1693.34 572.182C1684.54 562.592 1680.14 546.609 1680.14 524.233V434.73H1654.13V405.162H1680.14V372.797L1718.95 361.21V405.562H1762.56L1762.16 435.13V435.13ZM1958.23 492.668C1958.23 519.838 1950.22 542.214 1934.62 559.795C1918.21 577.776 1896.61 586.966 1869.4 586.966C1843.39 586.966 1822.58 578.175 1806.98 560.994C1791.37 543.812 1783.77 521.836 1783.77 495.465C1783.77 467.894 1791.77 445.519 1807.78 427.938C1823.78 410.357 1845.39 401.566 1872.2 401.566C1898.21 401.566 1919.41 410.357 1935.02 427.538C1950.62 444.32 1958.23 466.296 1958.23 492.668ZM1917.41 493.467C1917.41 477.084 1913.81 463.1 1907.01 451.512C1898.61 437.527 1887 430.335 1871.4 430.335C1855.39 430.335 1843.39 437.527 1834.99 451.512C1827.79 463.1 1824.58 477.484 1824.58 494.266C1824.58 510.648 1828.19 524.633 1834.99 536.221C1843.39 550.205 1855.39 557.398 1871 557.398C1886.2 557.398 1897.81 550.205 1906.61 535.821C1913.81 523.834 1917.41 509.849 1917.41 493.467V493.467ZM2086.67 439.925C2082.67 439.126 2078.27 438.726 2074.26 438.726C2060.26 438.726 2049.46 443.92 2042.25 454.309C2035.85 463.499 2032.25 475.087 2032.25 489.471V582.57H1992.64V461.102C1992.64 442.322 1992.24 423.942 1991.44 405.162H2025.85L2027.45 439.126H2028.65C2032.65 427.538 2039.45 417.948 2048.26 411.156C2056.66 405.162 2066.66 401.566 2076.67 401.566C2080.27 401.566 2083.47 401.966 2086.67 402.365V439.925V439.925ZM2263.52 485.875C2263.52 491.869 2263.12 497.862 2261.92 503.856H2143.49C2143.89 521.437 2149.49 535.022 2160.69 544.212C2170.7 552.603 2183.5 556.599 2199.5 556.599C2217.11 556.599 2233.12 553.802 2247.52 548.208L2253.52 575.378C2236.72 582.57 2216.71 586.167 2193.9 586.167C2166.29 586.167 2144.69 578.175 2129.08 561.793C2113.48 545.411 2105.47 523.834 2105.47 496.663C2105.47 469.892 2112.68 447.516 2127.48 429.935C2142.69 410.756 2163.49 401.566 2189.5 401.566C2215.11 401.566 2234.72 411.156 2247.52 429.935C2258.32 445.119 2263.52 463.499 2263.52 485.875ZM2225.91 475.486C2226.31 463.899 2223.51 453.51 2218.31 445.119C2211.51 433.931 2201.1 428.737 2186.7 428.737C2173.9 428.737 2163.09 433.931 2155.09 444.719C2148.69 453.11 2144.69 463.499 2143.49 475.486H2225.91V475.486ZM837.868 249.73C827.065 249.73 817.462 249.331 809.459 248.132V129.061C820.663 127.462 831.867 126.663 843.07 126.663C888.285 126.663 909.091 149.039 909.091 185.4C909.091 226.955 884.283 249.73 837.868 249.73V249.73ZM844.271 141.847C838.269 141.847 833.067 142.246 828.666 143.046V233.348C831.066 233.748 835.468 233.748 841.87 233.748C871.479 233.748 888.285 216.966 888.285 185.4C888.285 157.43 873.08 141.847 844.271 141.847ZM973.912 250.529C948.304 250.529 931.899 231.35 931.899 205.778C931.899 179.007 948.704 159.827 975.513 159.827C1000.72 159.827 1017.53 177.808 1017.53 204.579C1017.53 231.35 999.92 250.529 973.912 250.529ZM974.712 173.812C960.708 173.812 951.505 186.998 951.505 205.378C951.505 223.359 960.708 236.545 974.312 236.545C987.917 236.545 997.119 222.56 997.119 204.979C997.52 186.998 988.317 173.812 974.712 173.812V173.812ZM1163.17 161.426L1135.96 248.532H1117.96L1106.75 210.573C1103.95 201.383 1101.55 191.793 1099.55 182.203H1099.15C1097.55 191.793 1095.15 201.383 1091.95 210.573L1079.95 248.532H1061.94L1036.33 161.426H1056.34L1066.34 202.981C1068.74 212.97 1070.74 222.16 1072.34 230.951H1072.74C1074.34 223.758 1076.34 214.568 1079.95 202.981L1092.35 161.426H1108.36L1120.36 202.182C1123.16 212.171 1125.56 221.76 1127.56 230.951H1127.96C1129.16 222.16 1131.16 212.57 1133.96 202.182L1144.77 161.426H1163.17V161.426ZM1263.6 248.532H1244.4V198.586C1244.4 183.002 1238.4 175.411 1226.79 175.411C1215.19 175.411 1207.19 185.4 1207.19 196.588V248.532H1187.58V186.199C1187.58 178.607 1187.58 170.216 1186.78 161.426H1203.99L1204.79 175.011H1205.19C1210.39 165.821 1221.19 159.827 1232.79 159.827C1251.2 159.827 1263.2 173.812 1263.2 196.588L1263.6 248.532V248.532ZM1317.22 248.532H1297.62V121.069H1317.22V248.532ZM1388.04 250.529C1362.44 250.529 1346.03 231.35 1346.03 205.778C1346.03 179.007 1362.84 159.827 1389.65 159.827C1414.85 159.827 1431.66 177.808 1431.66 204.579C1431.66 231.35 1414.05 250.529 1388.04 250.529ZM1388.84 173.812C1374.84 173.812 1365.64 186.998 1365.64 205.378C1365.64 223.359 1374.84 236.545 1388.44 236.545C1402.05 236.545 1411.25 222.56 1411.25 204.979C1411.25 186.998 1402.45 173.812 1388.84 173.812V173.812ZM1508.08 248.532L1506.48 238.542H1506.08C1500.08 246.534 1491.68 250.529 1480.47 250.529C1464.87 250.529 1453.67 239.741 1453.67 224.957C1453.67 203.38 1472.47 192.192 1504.88 192.192V190.594C1504.88 179.007 1498.88 173.413 1486.88 173.413C1478.07 173.413 1470.87 175.411 1464.07 179.806L1460.07 167.02C1468.07 161.825 1478.07 159.428 1490.08 159.428C1512.88 159.428 1524.49 171.415 1524.49 195.389V227.354C1524.49 236.145 1524.89 242.938 1525.69 248.132L1508.08 248.532V248.532ZM1505.28 204.979C1483.68 204.979 1472.87 210.173 1472.87 222.56C1472.87 231.75 1478.47 236.145 1486.08 236.145C1496.08 236.145 1505.28 228.553 1505.28 218.564V204.979ZM1618.52 248.532L1617.72 234.547H1617.32C1611.72 244.935 1602.51 250.529 1589.31 250.529C1568.1 250.529 1552.5 232.149 1552.5 206.177C1552.5 179.007 1568.5 159.827 1590.91 159.827C1602.51 159.827 1610.92 163.823 1615.72 171.814H1616.12V121.069H1635.72V224.957C1635.72 233.348 1636.12 241.339 1636.52 248.532H1618.52V248.532ZM1615.72 197.387C1615.72 185 1607.71 174.611 1595.31 174.611C1580.91 174.611 1572.1 187.398 1572.1 205.378C1572.1 222.959 1581.31 234.946 1594.91 234.946C1607.31 234.946 1615.72 224.158 1615.72 211.771V197.387V197.387ZM1758.56 250.529C1732.95 250.529 1716.55 231.35 1716.55 205.778C1716.55 179.007 1733.36 159.827 1760.16 159.827C1785.37 159.827 1802.18 177.808 1802.18 204.579C1802.18 231.35 1784.57 250.529 1758.56 250.529ZM1759.36 173.812C1745.36 173.812 1736.56 186.998 1736.56 205.378C1736.56 223.359 1745.76 236.545 1759.36 236.545C1772.97 236.545 1782.17 222.56 1782.17 204.979C1781.77 186.998 1772.97 173.812 1759.36 173.812ZM1906.61 248.532H1887V198.586C1887 183.002 1881 175.411 1869.4 175.411C1857.79 175.411 1850.19 185.4 1850.19 196.588V248.532H1830.59V186.199C1830.59 178.607 1830.59 170.216 1829.79 161.426H1846.99L1847.79 175.011H1848.19C1853.39 165.821 1864.2 159.827 1875.8 159.827C1894.21 159.827 1906.21 173.812 1906.21 196.588V248.532H1906.61ZM2037.05 175.81H2015.85V218.164C2015.85 228.953 2019.45 234.147 2027.05 234.147C2030.65 234.147 2033.45 233.748 2035.85 233.348L2036.25 248.132C2032.65 249.73 2027.45 250.13 2021.05 250.13C2005.84 250.13 1996.64 241.739 1996.64 219.763V175.81H1983.84V161.426H1996.64V145.443L2015.85 139.849V161.426H2037.05V175.81ZM2139.89 248.532H2120.68V198.985C2120.68 183.402 2114.68 175.411 2103.07 175.411C2093.07 175.411 2083.47 182.203 2083.47 196.188V248.931H2064.26V121.069H2083.47V173.413H2083.87C2089.87 163.823 2098.67 159.028 2110.28 159.028C2128.68 159.028 2139.89 173.413 2139.89 196.188V248.532V248.532ZM2245.12 209.773H2186.7C2187.1 226.156 2197.9 235.745 2214.31 235.745C2223.11 235.745 2230.71 234.147 2237.92 231.75L2241.12 245.335C2232.71 248.931 2223.11 250.529 2211.91 250.529C2184.7 250.529 2168.29 233.348 2168.29 206.577C2168.29 179.806 2184.7 159.827 2209.51 159.827C2231.91 159.827 2245.92 176.21 2245.92 201.383C2245.92 203.78 2245.92 206.577 2245.12 209.773ZM2227.51 195.789C2227.51 182.203 2220.71 172.614 2208.31 172.614C2197.1 172.614 2188.3 182.203 2187.1 195.789H2227.51V195.789Z" fill="white"/>
<defs>
<linearGradient id="paint0_linear" x1="1833.68" y1="741.745" x2="1833.68" y2="-9935.14" gradientUnits="userSpaceOnUse">
<stop stop-color="#1A1A1A" stop-opacity="0.1"/>
<stop offset="0.123" stop-color="#212121" stop-opacity="0.151"/>
<stop offset="0.308" stop-color="#353535" stop-opacity="0.227"/>
<stop offset="0.532" stop-color="#575757" stop-opacity="0.318"/>
<stop offset="0.783" stop-color="#858585" stop-opacity="0.421"/>
<stop offset="1" stop-color="#B3B3B3" stop-opacity="0.51"/>
</linearGradient>
</defs>
</svg>
